<?xml version="1.0" encoding="UTF-8"?>
<svg id="Layer_1" xmlns="http://www.w3.org/2000/svg" version="1.1" viewBox="0 0 1001 274">
  <!-- Generator: Adobe Illustrator 29.2.1, SVG Export Plug-In . SVG Version: 2.1.0 Build 116)  -->
  <defs>
    <style>
      .st0 {
        fill-rule: evenodd;
      }

      .st0, .st1 {
        fill: #1a2419;
      }
    </style>
  </defs>
  <path class="st0" d="M138.5,33.5C126.6,12.6,106.1.6,79.6.6,35.3.6,0,39.4,0,87.7s35.3,87.5,79.6,87.5,47-12,58.9-32.9v29.5h38V4h-38v29.5ZM87.7,138.9c-28.2,0-50.3-22.6-50.3-51.2s22.1-50.8,50.3-50.8,50.8,21.9,50.8,50.8-21.7,51.2-50.8,51.2Z"/>
  <path class="st0" d="M913.8.6c-48.7,0-86,37.7-86,87.5s37.4,87.1,86,87.1,86.3-37.3,86.3-87.1S962.2.6,913.8.6ZM913.8,138.5c-27.6,0-48.7-21.9-48.7-50.4s21.1-50.8,48.7-50.8,48.9,21.9,48.9,50.8-21.5,50.4-48.9,50.4Z"/>
  <path class="st0" d="M827.7,1.6c-38.8-6.5-55.8,6.7-66.2,35V4.2h-37.8v167.8h37.8v-94.2c4.8-25.9,37.6-48.3,66.2-43.4V1.6Z"/>
  <path class="st0" d="M658.7,95c0,26.4-16.5,44.5-40.9,44.5s-40.3-17.9-40.3-44.5V4.2h-37.8v95.3c0,47,35.3,76.5,78.1,76.5s78.5-29.5,78.5-76.5V4.2h-37.8v90.9h.2Z"/>
  <path class="st0" d="M277.8,79.6c34.7-5.3,66.4-41.3,72.1-75.5h-41.6c-2.5,21.3-21.1,45.8-58.3,56.1V4.2h-37.8v167.8h37.8v-71.7c20.1,3.2,56.8,20.2,66.2,71.7h39.9c-6.7-48.5-38.6-87.1-78.5-92.3h.2Z"/>
  <path class="st0" d="M444.9,79.6c34.7-5.3,66.4-41.3,72.1-75.5h-41.6c-2.5,21.3-21.1,45.8-58.3,56.1V4.2h-37.8v167.8h37.8v-71.7c20,3.2,56.8,20.2,66.2,71.7h39.9c-6.7-48.5-38.6-87.1-78.5-92.3h.2,0Z"/>
  <g>
    <path class="st1" d="M681.8,223.8c2.8,1.5,4.9,3.7,6.5,6.5s2.3,6,2.3,9.6-.8,6.8-2.3,9.6c-1.6,2.8-3.7,5-6.5,6.5-2.8,1.5-5.9,2.3-9.4,2.3s-5.1-.5-7.3-1.6c-2.2-1-4.1-2.6-5.5-4.6v5.7h-6.3v-50.4h6.5v19.8c1.4-1.9,3.3-3.3,5.4-4.3,2.2-1,4.6-1.5,7.1-1.5s6.6.8,9.4,2.3h.1ZM678.1,251c1.8-1.1,3.3-2.6,4.4-4.5s1.6-4.1,1.6-6.6-.5-4.7-1.6-6.6c-1.1-1.9-2.5-3.4-4.4-4.5-1.8-1-3.9-1.6-6.2-1.6s-4.3.5-6.2,1.6c-1.9,1-3.3,2.5-4.4,4.5-1,1.9-1.6,4.1-1.6,6.6s.5,4.7,1.6,6.6c1,1.9,2.5,3.4,4.4,4.5s3.9,1.6,6.2,1.6,4.4-.5,6.2-1.6Z"/>
    <path class="st1" d="M730.5,221.9l-17.5,39.6c-1.5,3.7-3.3,6.3-5.4,7.7-2.1,1.5-4.5,2.2-7.4,2.2s-3.5-.3-5.1-.9c-1.7-.6-3-1.4-4.1-2.5l2.8-4.9c1.9,1.8,4,2.7,6.5,2.7s2.9-.4,4-1.3c1.1-.8,2-2.3,2.9-4.3l1.2-2.5-15.9-36h6.8l12.6,28.8,12.4-28.8h6.4l-.2.2h0Z"/>
    <path class="st1" d="M775.1,255.8c-1,.8-2.1,1.4-3.5,1.9-1.4.4-2.9.6-4.4.6-3.6,0-6.4-1-8.4-2.9s-3-4.7-3-8.4v-19.8h-6.1v-5.4h6.1v-7.9h6.5v7.9h10.3v5.4h-10.3v19.5c0,1.9.5,3.4,1.5,4.5,1,1,2.4,1.6,4.2,1.6s3.7-.6,5.1-1.7l2,4.7h0Z"/>
    <path class="st1" d="M787.6,255.9c-2.9-1.6-5.1-3.8-6.7-6.6-1.6-2.8-2.4-5.9-2.4-9.5s.8-6.7,2.4-9.5c1.6-2.8,3.8-5,6.7-6.5,2.9-1.6,6.1-2.3,9.7-2.3s6.8.8,9.6,2.3c2.8,1.6,5.1,3.7,6.7,6.5,1.6,2.8,2.4,5.9,2.4,9.5s-.8,6.7-2.4,9.5c-1.6,2.8-3.8,5-6.7,6.6-2.8,1.6-6,2.4-9.6,2.4s-6.8-.8-9.7-2.4ZM803.5,251c1.8-1.1,3.3-2.6,4.3-4.5s1.6-4.1,1.6-6.6-.5-4.7-1.6-6.6c-1-1.9-2.5-3.4-4.3-4.5-1.8-1-3.9-1.6-6.2-1.6s-4.4.5-6.2,1.6c-1.8,1-3.3,2.5-4.4,4.5-1.1,1.9-1.6,4.1-1.6,6.6s.5,4.7,1.6,6.6,2.5,3.4,4.4,4.5c1.8,1.1,3.9,1.6,6.2,1.6s4.4-.5,6.2-1.6Z"/>
    <path class="st1" d="M853.5,223.8c2.8,1.5,4.9,3.7,6.5,6.5s2.3,6,2.3,9.6-.8,6.8-2.3,9.6c-1.6,2.8-3.7,5-6.5,6.5-2.8,1.5-5.9,2.3-9.4,2.3s-5-.5-7.1-1.5c-2.2-1-4-2.4-5.5-4.4v18.6h-6.5v-49.2h6.3v5.7c1.4-2,3.3-3.5,5.5-4.5s4.7-1.5,7.3-1.5,6.6.8,9.4,2.3ZM849.7,251c1.8-1.1,3.3-2.6,4.4-4.5,1.1-1.9,1.6-4.1,1.6-6.6s-.5-4.7-1.6-6.6c-1.1-1.9-2.5-3.4-4.4-4.5-1.8-1-3.9-1.6-6.2-1.6s-4.3.5-6.2,1.6c-1.8,1.1-3.3,2.5-4.4,4.5s-1.6,4.1-1.6,6.6.5,4.7,1.6,6.6,2.5,3.4,4.4,4.5,3.9,1.6,6.2,1.6,4.4-.5,6.2-1.6Z"/>
    <path class="st1" d="M871.4,213.7c-.8-.8-1.3-1.8-1.3-3s.4-2.2,1.3-3c.8-.8,1.9-1.3,3.2-1.3s2.3.4,3.2,1.2c.8.8,1.3,1.8,1.3,3s-.4,2.3-1.3,3.1c-.8.8-1.9,1.3-3.2,1.3s-2.3-.4-3.2-1.2h0ZM871.3,221.9h6.5v36h-6.5v-36Z"/>
    <path class="st1" d="M896.2,255.9c-2.9-1.6-5.1-3.8-6.8-6.6-1.6-2.8-2.4-5.9-2.4-9.5s.8-6.7,2.4-9.5c1.6-2.8,3.9-5,6.8-6.5,2.9-1.6,6.2-2.3,9.8-2.3s6.2.7,8.7,2c2.6,1.3,4.5,3.2,5.9,5.7l-5,3.2c-1.1-1.7-2.5-3-4.2-3.9s-3.5-1.3-5.6-1.3-4.5.5-6.4,1.6c-1.9,1-3.4,2.5-4.4,4.5-1.1,1.9-1.6,4.1-1.6,6.6s.5,4.8,1.6,6.7,2.5,3.4,4.4,4.5c1.9,1,4,1.6,6.4,1.6s3.9-.4,5.6-1.3c1.7-.9,3.1-2.2,4.2-3.9l5,3.1c-1.4,2.5-3.4,4.4-5.9,5.7-2.6,1.3-5.5,2-8.7,2s-6.9-.8-9.8-2.4h0Z"/>
    <path class="st1" d="M962.7,221.9v36h-6.2v-5.4c-1.3,1.9-3,3.3-5.2,4.3-2.2,1-4.5,1.5-7,1.5-4.8,0-8.6-1.3-11.4-4-2.8-2.7-4.1-6.6-4.1-11.7v-20.7h6.5v20c0,3.5.8,6.1,2.5,7.9,1.7,1.8,4.1,2.7,7.2,2.7s6.2-1,8.2-3.1,3-5,3-8.8v-18.6h6.5Z"/>
    <path class="st1" d="M977,257.1c-2.7-.8-4.8-1.8-6.4-3l2.7-5.2c1.6,1.1,3.5,2,5.8,2.7s4.6,1,6.9,1c5.7,0,8.6-1.6,8.6-4.9s-.4-1.9-1.2-2.6c-.8-.6-1.7-1.1-2.9-1.4-1.2-.3-2.8-.6-4.9-1-2.9-.5-5.3-1-7.1-1.6s-3.4-1.6-4.7-3-2-3.4-2-5.9,1.4-5.9,4.1-7.9,6.4-3,10.9-3,4.8.3,7.2.9,4.4,1.4,5.9,2.4l-2.8,5.2c-2.9-1.9-6.4-2.9-10.4-2.9s-4.9.5-6.3,1.4-2.2,2.1-2.2,3.6.4,2.1,1.2,2.8,1.8,1.2,3,1.5,2.9.7,5.1,1.1c2.9.5,5.2,1,7,1.6s3.3,1.5,4.6,2.9,1.9,3.3,1.9,5.7-1.4,5.9-4.2,7.8c-2.8,1.9-6.6,2.9-11.4,2.9s-5.8-.4-8.5-1.2h.1,0Z"/>
  </g>
</svg>