<svg width="412" height="73" viewBox="0 0 412 73" fill="none" xmlns="http://www.w3.org/2000/svg">
<path fill-rule="evenodd" clip-rule="evenodd" d="M56.9656 13.997C52.0876 5.43975 43.6543 0.561705 32.7408 0.561705C14.5514 0.561705 0 16.3947 0 36.1135C0 55.8324 14.5514 71.7894 32.7408 71.7894C43.6543 71.7894 52.0462 66.9113 56.9656 58.3541V70.3838H72.6332V1.96724H56.9656V13.997ZM36.1306 56.9486C24.5142 56.9486 15.4196 47.7299 15.4196 36.1135C15.4196 24.6212 24.5142 15.4025 36.1306 15.4025C48.0363 15.4025 56.9656 24.3732 56.9656 36.1135C56.9656 48.0193 47.995 56.9486 36.1306 56.9486Z" fill="#10493C"/>
<path fill-rule="evenodd" clip-rule="evenodd" d="M376.188 0.561705C356.18 0.561705 340.76 15.9399 340.76 36.2375C340.76 56.5352 356.138 71.7894 376.188 71.7894C396.196 71.7894 411.74 56.5352 411.74 36.2375C411.74 15.9399 396.196 0.561705 376.188 0.561705ZM376.188 56.8245C364.861 56.8245 356.18 47.8539 356.18 36.2375C356.18 24.4972 364.861 15.5265 376.188 15.5265C387.515 15.5265 396.362 24.4972 396.362 36.2375C396.362 47.8539 387.515 56.8245 376.188 56.8245Z" fill="#10493C"/>
<path fill-rule="evenodd" clip-rule="evenodd" d="M340.76 0.974747C324.72 -1.71231 317.817 3.70315 313.476 15.1955C313.476 8.7052 313.476 3.90984 313.476 1.96689H297.933V70.4248H313.476C313.476 58.1884 313.476 44.2157 313.476 32.0206C315.46 21.4791 328.937 12.3017 340.76 14.286V0.974747Z" fill="#10493C"/>
<path fill-rule="evenodd" clip-rule="evenodd" d="M271.227 39.048C271.227 49.8376 264.448 57.1546 254.361 57.1546C244.274 57.1546 237.742 49.8376 237.742 39.048V1.9666H222.199V40.8669C222.199 60.0484 236.709 72.1195 254.32 72.1195C271.971 72.1195 286.688 60.0484 286.688 40.8669V1.9666H271.145V39.048H271.227Z" fill="#10493C"/>
<path fill-rule="evenodd" clip-rule="evenodd" d="M114.345 32.7644C128.607 30.6561 141.67 15.9393 144.026 1.9666H126.912C125.878 10.6065 118.231 20.652 102.935 24.8273V1.9666H87.3914V70.4245H102.935V41.1563C111.244 42.3965 126.292 49.3828 130.219 70.3832H146.672C143.944 50.623 130.756 34.914 114.345 32.7644Z" fill="#10493C"/>
<path fill-rule="evenodd" clip-rule="evenodd" d="M183.175 32.7644C197.437 30.6561 210.5 15.9393 212.856 1.9666H195.742C194.708 10.6065 187.061 20.652 171.765 24.8273V1.9666H156.221V70.4245H171.765V41.1563C180.074 42.3965 195.122 49.3828 199.049 70.3832H215.502C212.732 50.623 199.586 34.914 183.175 32.7644Z" fill="#10493C"/>
</svg>
